<?xml version="1.0" encoding="UTF-8" standalone="no"?>
<svg
   viewBox="0 0 24 24"
   version="1.1"
   id="svg1"
   sodipodi:docname="file-logo.svg"
   inkscape:version="1.3.2 (091e20ef0f, 2023-11-25, custom)"
   xmlns:inkscape="http://www.inkscape.org/namespaces/inkscape"
   xmlns:sodipodi="http://sodipodi.sourceforge.net/DTD/sodipodi-0.dtd"
   xmlns="http://www.w3.org/2000/svg"
   xmlns:svg="http://www.w3.org/2000/svg">
  <defs
     id="defs1" />
  <sodipodi:namedview
     id="namedview1"
     pagecolor="#ffffff"
     bordercolor="#000000"
     borderopacity="0.25"
     inkscape:showpageshadow="2"
     inkscape:pageopacity="0.0"
     inkscape:pagecheckerboard="0"
     inkscape:deskcolor="#d1d1d1"
     inkscape:zoom="36.416667"
     inkscape:cx="11.98627"
     inkscape:cy="12"
     inkscape:window-width="1910"
     inkscape:window-height="1040"
     inkscape:window-x="0"
     inkscape:window-y="0"
     inkscape:window-maximized="1"
     inkscape:current-layer="svg1" />
  <path
     d="M7.5 5C9.43 5 11 6.57 11 8.5C11 10.43 9.43 12 7.5 12C5.57 12 4 10.43 4 8.5C4 6.57 5.57 5 7.5 5M1 19V16.5C1 14.57 4.46 13 7.5 13C8.68 13 9.92 13.24 11 13.64V15.56C10.18 15.22 8.91 15 7.5 15C5 15 3 15.67 3 16.5V17H11V19H1M22 19H14C13.45 19 13 18.55 13 18V6C13 5.45 13.45 5 14 5H19L23 9V18C23 18.55 22.55 19 22 19M15 7V17H21V10H18V7H15M7.5 7C6.67 7 6 7.67 6 8.5C6 9.33 6.67 10 7.5 10C8.33 10 9 9.33 9 8.5C9 7.67 8.33 7 7.5 7M16 13H20V15H16V13Z"
     id="path1"
     style="fill:#ffffff" />
</svg>
